# xmcd CD database file
#
# Track frame offsets:
#	150
#	21472
#	41185
#	51048
#
# Disc length: 962 seconds
#
# Revision: 2
# Processed by: cddbd v1.5.1PL2 Copyright (c) Steve Scherf et al.
# Submitted via: CDex 1.51
#
DISCID=3203c004
DTITLE=Mi - サンセット
DYEAR=2005
DGENRE=Pop
TTITLE0=サンセット
TTITLE1=愛する君のうた
TTITLE2=I Love Music♪II
TTITLE3=サンセット （instrumental）
EXTD=[Columbia] COCA-3006 05/09/14 YEAR: 2005/09/14
EXTT0=
EXTT1=
EXTT2=
EXTT3=
PLAYORDER=
